<?xml version="1.0" encoding="UTF-8"?>
<svg xmlns="http://www.w3.org/2000/svg" viewBox="0 0 800 600">
<rect x="0.00" y="0.00" width="800.00" height="600.00" fill="white" stroke="black" stroke-width="1.00" fill-opacity="1"/>
<text x="400.00" y="40.00" font-size="24.00" text-anchor="middle" fill="black">Area Chart Example</text>
<line x1="80.00" y1="80.00" x2="80.00" y2="520.00" stroke="lightgray" stroke-width="0.50"/>
<line x1="144.00" y1="80.00" x2="144.00" y2="520.00" stroke="lightgray" stroke-width="0.50"/>
<line x1="208.00" y1="80.00" x2="208.00" y2="520.00" stroke="lightgray" stroke-width="0.50"/>
<line x1="272.00" y1="80.00" x2="272.00" y2="520.00" stroke="lightgray" stroke-width="0.50"/>
<line x1="336.00" y1="80.00" x2="336.00" y2="520.00" stroke="lightgray" stroke-width="0.50"/>
<line x1="400.00" y1="80.00" x2="400.00" y2="520.00" stroke="lightgray" stroke-width="0.50"/>
<line x1="464.00" y1="80.00" x2="464.00" y2="520.00" stroke="lightgray" stroke-width="0.50"/>
<line x1="528.00" y1="80.00" x2="528.00" y2="520.00" stroke="lightgray" stroke-width="0.50"/>
<line x1="592.00" y1="80.00" x2="592.00" y2="520.00" stroke="lightgray" stroke-width="0.50"/>
<line x1="656.00" y1="80.00" x2="656.00" y2="520.00" stroke="lightgray" stroke-width="0.50"/>
<line x1="720.00" y1="80.00" x2="720.00" y2="520.00" stroke="lightgray" stroke-width="0.50"/>
<line x1="80.00" y1="80.00" x2="720.00" y2="80.00" stroke="lightgray" stroke-width="0.50"/>
<line x1="80.00" y1="124.00" x2="720.00" y2="124.00" stroke="lightgray" stroke-width="0.50"/>
<line x1="80.00" y1="168.00" x2="720.00" y2="168.00" stroke="lightgray" stroke-width="0.50"/>
<line x1="80.00" y1="212.00" x2="720.00" y2="212.00" stroke="lightgray" stroke-width="0.50"/>
<line x1="80.00" y1="256.00" x2="720.00" y2="256.00" stroke="lightgray" stroke-width="0.50"/>
<line x1="80.00" y1="300.00" x2="720.00" y2="300.00" stroke="lightgray" stroke-width="0.50"/>
<line x1="80.00" y1="344.00" x2="720.00" y2="344.00" stroke="lightgray" stroke-width="0.50"/>
<line x1="80.00" y1="388.00" x2="720.00" y2="388.00" stroke="lightgray" stroke-width="0.50"/>
<line x1="80.00" y1="432.00" x2="720.00" y2="432.00" stroke="lightgray" stroke-width="0.50"/>
<line x1="80.00" y1="476.00" x2="720.00" y2="476.00" stroke="lightgray" stroke-width="0.50"/>
<line x1="80.00" y1="520.00" x2="720.00" y2="520.00" stroke="lightgray" stroke-width="0.50"/>
<line x1="80.00" y1="520.00" x2="720.00" y2="520.00" stroke="black" stroke-width="2.00"/>
<line x1="80.00" y1="80.00" x2="80.00" y2="520.00" stroke="black" stroke-width="2.00"/>
<text x="80.00" y="538.00" font-size="12.00" text-anchor="middle" fill="black">0.0</text>
<text x="144.00" y="538.00" font-size="12.00" text-anchor="middle" fill="black">0.3</text>
<text x="208.00" y="538.00" font-size="12.00" text-anchor="middle" fill="black">0.6</text>
<text x="272.00" y="538.00" font-size="12.00" text-anchor="middle" fill="black">0.9</text>
<text x="336.00" y="538.00" font-size="12.00" text-anchor="middle" fill="black">1.2</text>
<text x="400.00" y="538.00" font-size="12.00" text-anchor="middle" fill="black">1.5</text>
<text x="464.00" y="538.00" font-size="12.00" text-anchor="middle" fill="black">1.8</text>
<text x="528.00" y="538.00" font-size="12.00" text-anchor="middle" fill="black">2.1</text>
<text x="592.00" y="538.00" font-size="12.00" text-anchor="middle" fill="black">2.4</text>
<text x="656.00" y="538.00" font-size="12.00" text-anchor="middle" fill="black">2.7</text>
<text x="720.00" y="538.00" font-size="12.00" text-anchor="middle" fill="black">3.0</text>
<path d="M 80.00,515.00 L 80.00,525.00 M 144.00,515.00 L 144.00,525.00 M 208.00,515.00 L 208.00,525.00 M 272.00,515.00 L 272.00,525.00 M 336.00,515.00 L 336.00,525.00 M 400.00,515.00 L 400.00,525.00 M 464.00,515.00 L 464.00,525.00 M 528.00,515.00 L 528.00,525.00 M 592.00,515.00 L 592.00,525.00 M 656.00,515.00 L 656.00,525.00 M 720.00,515.00 L 720.00,525.00 " stroke="black" stroke-width="1" fill="none"/>
<text x="75.00" y="523.60" font-size="12.00" text-anchor="end" fill="black">0.0</text>
<text x="75.00" y="479.60" font-size="12.00" text-anchor="end" fill="black">0.3</text>
<text x="75.00" y="435.60" font-size="12.00" text-anchor="end" fill="black">0.6</text>
<text x="75.00" y="391.60" font-size="12.00" text-anchor="end" fill="black">0.9</text>
<text x="75.00" y="347.60" font-size="12.00" text-anchor="end" fill="black">1.2</text>
<text x="75.00" y="303.60" font-size="12.00" text-anchor="end" fill="black">1.5</text>
<text x="75.00" y="259.60" font-size="12.00" text-anchor="end" fill="black">1.8</text>
<text x="75.00" y="215.60" font-size="12.00" text-anchor="end" fill="black">2.1</text>
<text x="75.00" y="171.60" font-size="12.00" text-anchor="end" fill="black">2.4</text>
<text x="75.00" y="127.60" font-size="12.00" text-anchor="end" fill="black">2.7</text>
<text x="75.00" y="83.60" font-size="12.00" text-anchor="end" fill="black">3.0</text>
<path d="M 75.00,520.00 L 85.00,520.00 M 75.00,476.00 L 85.00,476.00 M 75.00,432.00 L 85.00,432.00 M 75.00,388.00 L 85.00,388.00 M 75.00,344.00 L 85.00,344.00 M 75.00,300.00 L 85.00,300.00 M 75.00,256.00 L 85.00,256.00 M 75.00,212.00 L 85.00,212.00 M 75.00,168.00 L 85.00,168.00 M 75.00,124.00 L 85.00,124.00 M 75.00,80.00 L 85.00,80.00 " stroke="black" stroke-width="1" fill="none"/>
<text x="720.00" y="560.00" font-size="18.00" text-anchor="middle" fill="black">X Axis</text>
<text x="26.67" y="300.00" font-size="18.00" text-anchor="middle" fill="black" transform="rotate(-90 26.67 300.00)">Y Axis</text>
<path d="M 80.00,520.00 L 80.00,520.00 L 293.33,226.67 L 506.67,373.33 L 720.00,80.00 L 720.00,520.00 Z" fill="rgba(220, 0, 0, 0.5)" stroke="rgb(220, 0, 0)" stroke-width="1"/>
<path d="M 80.00,520.00 L 80.00,373.33 L 293.33,300.00 L 506.67,446.67 L 720.00,226.67 L 720.00,520.00 Z" fill="rgba(0, 220, 0, 0.5)" stroke="rgb(0, 220, 0)" stroke-width="1"/>
<path d="M 80.00,520.00 L 80.00,153.33 L 293.33,446.67 L 506.67,446.67 L 720.00,300.00 L 720.00,520.00 Z" fill="rgba(0, 0, 220, 0.5)" stroke="rgb(0, 0, 220)" stroke-width="1"/>
<rect x="0.00" y="555.00" width="379.40" height="22.00" fill="white" stroke="black" stroke-width="0.50" fill-opacity="0.5"/>
<rect x="5.00" y="560.00" width="12.00" height="12.00" fill="rgb(220,0,0)"/><text x="20.60" y="570.00" font-size="12.00" fill="rgb(220,0,0)">Dataset 1</text><rect x="129.80" y="560.00" width="12.00" height="12.00" fill="rgb(0,220,0)"/><text x="145.40" y="570.00" font-size="12.00" fill="rgb(0,220,0)">Dataset 2</text><rect x="254.60" y="560.00" width="12.00" height="12.00" fill="rgb(0,0,220)"/><text x="270.20" y="570.00" font-size="12.00" fill="rgb(0,0,220)">Dataset 3</text>
</svg>
